<svg width="68" height="68" viewBox="0 0 68 68" fill="none" xmlns="http://www.w3.org/2000/svg">
<g clip-path="url(#clip0)">
<path d="M46.3606 0H3.08447V64.4639H46.3606V0Z" fill="#64798A"/>
<path d="M13.4984 4.98828H7.94336V14.1773H13.4984V4.98828Z" fill="#44C4A1"/>
<path d="M22.8324 4.98828H17.2773V14.1773H22.8324V4.98828Z" fill="#44C4A1"/>
<path d="M32.1674 4.98828H26.6123V14.1773H32.1674V4.98828Z" fill="#44C4A1"/>
<path d="M41.5043 4.98828H35.9492V14.1773H41.5043V4.98828Z" fill="#44C4A1"/>
<path d="M13.4984 19.5039H7.94336V28.693H13.4984V19.5039Z" fill="#44C4A1"/>
<path d="M22.8324 19.5039H17.2773V28.693H22.8324V19.5039Z" fill="#44C4A1"/>
<path d="M32.1674 19.5039H26.6123V28.693H32.1674V19.5039Z" fill="#27A2DB"/>
<path d="M41.5043 19.5039H35.9492V28.693H41.5043V19.5039Z" fill="#27A2DB"/>
<path d="M32.1674 43.2011H26.6123L32.1674 34.0117V43.2011Z" fill="#2D93BA"/>
<path d="M41.5017 43.2011H35.9468L41.5017 34.0117V43.2011Z" fill="#2D93BA"/>
<path d="M13.4984 48.5234H7.94336V57.7125H13.4984V48.5234Z" fill="#44C4A1"/>
<path d="M22.8324 48.5234H17.2773V57.7125H22.8324V48.5234Z" fill="#44C4A1"/>
<path d="M32.1674 48.5234H26.6123V57.7125H32.1674V48.5234Z" fill="#27A2DB"/>
<path d="M41.5043 48.5234H35.9492V57.7125H41.5043V48.5234Z" fill="#27A2DB"/>
<path d="M13.4983 14.1776H7.94336L13.4983 4.98828V14.1776Z" fill="#3EA69B"/>
<path d="M22.8329 14.1776H17.2778L22.8329 4.98828V14.1776Z" fill="#3EA69B"/>
<path d="M32.1669 14.1776H26.6118L32.1669 4.98828V14.1776Z" fill="#3EA69B"/>
<path d="M41.5017 14.1776H35.9468L41.5017 4.98828V14.1776Z" fill="#3EA69B"/>
<path d="M13.4983 28.6892H7.94336L13.4983 19.5V28.6892Z" fill="#3EA69B"/>
<path d="M22.8329 28.6892H17.2778L22.8329 19.5V28.6892Z" fill="#3EA69B"/>
<path d="M32.1674 28.6892H26.6123L32.1674 19.5V28.6892Z" fill="#2D93BA"/>
<path d="M41.5017 28.6892H35.9468L41.5017 19.5V28.6892Z" fill="#2D93BA"/>
<path d="M13.4984 34.0078H7.94336V43.1969H13.4984V34.0078Z" fill="#44C4A1"/>
<path d="M22.8324 34.0078H17.2773V43.1969H22.8324V34.0078Z" fill="#44C4A1"/>
<path d="M32.1674 34.0078H26.6123V43.1969H32.1674V34.0078Z" fill="#27A2DB"/>
<path d="M41.5043 34.0078H35.9492V43.1969H41.5043V34.0078Z" fill="#27A2DB"/>
<path d="M13.4983 57.7127H7.94336L13.4983 48.5234V57.7127Z" fill="#3EA69B"/>
<path d="M22.8329 57.7127H17.2778L22.8329 48.5234V57.7127Z" fill="#3EA69B"/>
<path d="M32.1674 57.7127H26.6123L32.1674 48.5234V57.7127Z" fill="#2D93BA"/>
<path d="M41.5017 57.7127H35.9468L41.5017 48.5234V57.7127Z" fill="#2D93BA"/>
<path d="M63.7222 19.4062H26.6123V64.4684H63.7222V19.4062Z" fill="#D5D6DB"/>
<path d="M51.356 52.1016H38.9863V64.4694H51.356V52.1016Z" fill="#64798A"/>
<path d="M52.9013 50.0195H37.4336V52.1021H52.9013V50.0195Z" fill="#3A556A"/>
<path d="M34.8217 23.6094H29.7026V32.5382H34.8217V23.6094Z" fill="#27A2DB"/>
<path d="M43.4262 23.6094H38.3071V32.5382H43.4262V23.6094Z" fill="#27A2DB"/>
<path d="M52.0306 23.6094H46.9116V32.5382H52.0306V23.6094Z" fill="#27A2DB"/>
<path d="M60.6303 23.6094H55.5112V32.5382H60.6303V23.6094Z" fill="#27A2DB"/>
<path d="M34.8237 32.5384H29.7046L34.8237 23.6094V32.5384Z" fill="#2D93BA"/>
<path d="M43.4258 32.5384H38.3066L43.4258 23.6094V32.5384Z" fill="#2D93BA"/>
<path d="M52.0277 32.5384H46.9087L52.0277 23.6094V32.5384Z" fill="#2D93BA"/>
<path d="M60.6298 32.5384H55.5107L60.6298 23.6094V32.5384Z" fill="#2D93BA"/>
<path d="M34.8217 36.8828H29.7026V45.8117H34.8217V36.8828Z" fill="#27A2DB"/>
<path d="M43.4262 36.8828H38.3071V45.8117H43.4262V36.8828Z" fill="#27A2DB"/>
<path d="M52.0306 36.8828H46.9116V45.8117H52.0306V36.8828Z" fill="#27A2DB"/>
<path d="M60.6303 36.8828H55.5112V45.8117H60.6303V36.8828Z" fill="#27A2DB"/>
<path d="M60.6303 50.0195H55.5112V58.9484H60.6303V50.0195Z" fill="#27A2DB"/>
<path d="M34.8217 50.0195H29.7026V58.9484H34.8217V50.0195Z" fill="#27A2DB"/>
<path d="M34.8237 45.8118H29.7046L34.8237 36.8828V45.8118Z" fill="#2D93BA"/>
<path d="M43.4258 45.8118H38.3066L43.4258 36.8828V45.8118Z" fill="#2D93BA"/>
<path d="M52.0277 45.8118H46.9087L52.0277 36.8828V45.8118Z" fill="#2D93BA"/>
<path d="M60.6298 45.8118H55.5107L60.6298 36.8828V45.8118Z" fill="#2D93BA"/>
<path d="M60.6298 58.9445H55.5107L60.6298 50.0156V58.9445Z" fill="#2D93BA"/>
<path d="M34.8237 58.9445H29.7046L34.8237 50.0156V58.9445Z" fill="#2D93BA"/>
<path d="M66.2103 68.0012H1.78998C1.2893 68.0012 0.883301 67.5952 0.883301 67.0946V65.3754C0.883301 64.8748 1.28916 64.4688 1.78998 64.4688H66.2103C66.711 64.4688 67.117 64.8746 67.117 65.3754V67.0946C67.117 67.5952 66.711 68.0012 66.2103 68.0012Z" fill="#3A556A"/>
<path d="M13.4983 43.2011H7.94336L13.4983 34.0117V43.2011Z" fill="#3EA69B"/>
<path d="M22.8329 43.2011H17.2778L22.8329 34.0117V43.2011Z" fill="#3EA69B"/>
</g>
<defs>
<clipPath id="clip0">
<rect width="68" height="68" fill="white"/>
</clipPath>
</defs>
</svg>
