<svg width="26" height="24" viewBox="0 0 26 24" fill="none" xmlns="http://www.w3.org/2000/svg">
<rect width="26" height="24" fill="white"/>
<g clip-path="url(#clip0)">
<path d="M9.9029 18.4131C9.9029 18.4131 8.99324 18.9643 10.5343 19.118C12.3964 19.3512 13.3863 19.3141 15.4411 18.9219C15.4411 18.9219 15.9976 19.277 16.7467 19.5473C12.1182 21.5082 6.25893 19.4307 9.9029 18.4131ZM9.30895 15.864C9.30895 15.864 8.31903 16.6113 9.86544 16.765C11.8827 16.961 13.4666 16.9981 16.2009 16.4523C16.2009 16.4523 16.5595 16.8444 17.1534 17.0405C11.5617 18.6887 5.31181 17.1995 9.30895 15.864ZM20.2355 20.337C20.2355 20.337 20.9097 20.8881 19.481 21.3174C16.827 22.1017 8.35648 22.3349 5.98603 21.3174C5.15664 20.9623 6.74051 20.4535 7.2542 20.3741C7.76788 20.2574 8.04613 20.2574 8.04613 20.2574C7.13648 19.6321 1.98889 21.5506 5.43489 22.1017C14.8899 23.628 22.6862 21.434 20.2355 20.337ZM10.3363 13.1983C10.3363 13.1983 6.02349 14.2158 8.79526 14.5709C9.98314 14.7299 12.3162 14.6875 14.494 14.5338C16.2758 14.3748 18.0577 14.0621 18.0577 14.0621C18.0577 14.0621 17.4263 14.3377 16.9875 14.6133C12.5944 15.7527 4.16137 15.2386 6.57998 14.0621C8.63473 13.0817 10.3363 13.1983 10.3363 13.1983ZM18.0577 17.4751C22.4882 15.2015 20.4335 13.0075 19.0102 13.2778C18.6516 13.3573 18.4965 13.4368 18.4965 13.4368C18.4965 13.4368 18.6142 13.2036 18.8924 13.1241C21.7017 12.1436 23.917 16.0654 17.9828 17.5917C17.9774 17.5917 18.0149 17.5493 18.0577 17.4751ZM10.7751 23.6651C15.0505 23.9407 21.5786 23.5062 21.7391 21.5082C21.7391 21.5082 21.4234 22.2925 18.2182 22.8808C14.5742 23.5485 10.0634 23.4691 7.41472 23.0398C7.40937 23.0398 7.96052 23.5114 10.7751 23.6651Z" fill="#0A6EB5"/>
<path d="M15.3661 0.261719C15.3661 0.261719 17.8222 2.73137 13.0331 6.45706C9.19112 9.47788 12.1609 11.2002 13.0331 13.1611C10.775 11.1631 9.15366 9.39836 10.2613 7.75019C11.8826 5.31761 16.356 4.14639 15.3661 0.261719ZM14.0979 11.5129C15.2484 12.8061 13.7822 13.9826 13.7822 13.9826C13.7822 13.9826 16.7091 12.4934 15.3661 10.6491C14.1407 8.88429 13.1883 8.02045 18.3358 5.08442C18.3305 5.08442 10.2185 7.08242 14.0979 11.5129Z" fill="#E11F22"/>
</g>
<defs>
<clipPath id="clip0">
<rect width="17.7391" height="24" fill="white" transform="translate(4)"/>
</clipPath>
</defs>
</svg>
