<svg width="161" height="35" viewBox="0 0 161 35" fill="none" xmlns="http://www.w3.org/2000/svg">
<path d="M36.4238 14.5907H46.5681V17.2382H39.5173V19.7464H45.5091V22.171H39.5173V27.3267H36.4238V14.5907ZM47.3206 20.9726C47.3206 17.3218 49.8845 14.312 54.1206 14.312C58.3845 14.312 60.9763 17.3218 60.9763 20.9726C60.9763 24.6235 58.4124 27.6333 54.1206 27.6333C49.8845 27.6333 47.3206 24.6235 47.3206 20.9726ZM57.7714 20.9726C57.7714 18.771 56.1829 17.2939 54.1206 17.2939C52.0861 17.2939 50.4976 18.771 50.4976 20.9726C50.4976 23.1743 52.0861 24.6513 54.1206 24.6513C56.1829 24.6513 57.7714 23.1743 57.7714 20.9726ZM63.1222 14.5907H69.1419C72.3747 14.5907 74.437 16.2628 74.437 19.0497C74.437 20.8333 73.6288 22.1153 72.3189 22.8677V23.1464L75.1894 27.1595V27.3825H71.6779L69.1697 23.648H66.2156V27.3825H63.1222V14.5907ZM69.0025 17.2382H66.1878V21.0562H69.0304C70.4517 21.0562 71.232 20.4153 71.232 19.1333C71.2599 17.9349 70.4517 17.2382 69.0025 17.2382ZM82.7976 19.7743H89.2353V21.1956C89.2353 24.93 87.2009 27.6333 83.132 27.6333C78.8681 27.6333 76.3042 24.6235 76.3042 20.9726C76.3042 17.3218 78.8681 14.312 83.132 14.312C86.5042 14.312 87.9534 15.9005 87.9534 15.9005L86.114 18.2415C86.114 18.2415 84.8878 17.2661 83.1042 17.2661C81.0419 17.2661 79.5091 18.7431 79.5091 20.9726C79.5091 23.1743 81.0419 24.6792 83.1042 24.6792C84.9435 24.6792 85.8911 23.5644 85.9468 22.3103V22.171H82.8533V19.7743H82.7976ZM100.188 22.1989H94.5861V24.7071H101.637V27.3546H91.4927V14.5907H101.637V17.2382H94.5861V19.7464H100.216V22.1989H100.188ZM104.173 14.5907H110.193C113.425 14.5907 115.488 16.2628 115.488 19.0497C115.488 20.8333 114.68 22.1153 113.37 22.8677V23.1464L116.24 27.1595V27.3825H112.729L110.221 23.648H107.266V27.3825H104.173V14.5907ZM110.053 17.2382H107.239V21.0562H110.081C111.503 21.0562 112.283 20.4153 112.283 19.1333C112.283 17.9349 111.475 17.2382 110.053 17.2382ZM117.188 20.9726C117.188 17.3218 119.752 14.312 123.988 14.312C128.252 14.312 130.844 17.3218 130.844 20.9726C130.844 24.6235 128.28 27.6333 123.988 27.6333C119.752 27.6333 117.188 24.6235 117.188 20.9726ZM127.666 20.9726C127.666 18.771 126.078 17.2939 124.016 17.2939C121.981 17.2939 120.393 18.771 120.393 20.9726C120.393 23.1743 121.981 24.6513 124.016 24.6513C126.05 24.6513 127.666 23.1743 127.666 20.9726ZM143.914 26.0726C143.914 26.0726 142.493 27.6333 139.371 27.6333C135.107 27.6333 132.516 24.6235 132.516 20.9726C132.516 17.3218 135.08 14.312 139.371 14.312C142.521 14.312 143.914 15.8726 143.914 15.8726L142.158 18.2415C142.158 18.2415 140.848 17.2939 139.427 17.2939C137.253 17.2939 135.721 18.771 135.721 21.0005C135.721 23.2021 137.253 24.7071 139.427 24.7071C141.239 24.7071 142.158 23.7595 142.158 23.7595L143.914 26.0726ZM148.624 20.0808L153.835 14.5907H157.598V14.8694L152.693 20.0808L157.598 27.048V27.3546H153.863C152.748 25.6825 151.662 24.0103 150.547 22.3382L148.624 24.3726V27.3546H145.53V14.5907H148.624V20.0808ZM159.827 14.3956C160.022 14.3956 160.189 14.4513 160.357 14.5349C160.524 14.6185 160.663 14.7579 160.775 14.953C160.886 15.1202 160.914 15.3153 160.914 15.5103C160.914 15.7054 160.858 15.8726 160.775 16.0677C160.691 16.2628 160.552 16.3743 160.357 16.4857C160.189 16.5694 159.994 16.6251 159.799 16.6251C159.604 16.6251 159.437 16.5694 159.242 16.4857C159.075 16.4021 158.935 16.2628 158.824 16.0677C158.712 15.8726 158.684 15.7054 158.684 15.5103C158.684 15.3153 158.74 15.148 158.824 14.953C158.907 14.7579 159.047 14.6464 159.242 14.5349C159.437 14.4513 159.632 14.3956 159.827 14.3956ZM159.827 14.6185C159.688 14.6185 159.521 14.6464 159.381 14.73C159.242 14.8136 159.13 14.9251 159.047 15.0644C158.963 15.2038 158.935 15.3431 158.935 15.5103C158.935 15.6776 158.963 15.8169 159.047 15.9562C159.13 16.0956 159.242 16.2071 159.381 16.2907C159.521 16.3743 159.66 16.4021 159.827 16.4021C159.994 16.4021 160.134 16.3743 160.273 16.2907C160.412 16.2071 160.524 16.0956 160.607 15.9562C160.691 15.8169 160.719 15.6776 160.719 15.5103C160.719 15.3431 160.691 15.2038 160.607 15.0644C160.524 14.9251 160.412 14.8136 160.273 14.73C160.106 14.6464 159.966 14.6185 159.827 14.6185ZM159.325 16.0956V14.9251H159.911C159.994 14.9251 160.05 14.953 160.106 14.9808C160.162 15.0087 160.189 15.0366 160.217 15.0923C160.245 15.148 160.273 15.2038 160.273 15.2595C160.273 15.3431 160.245 15.4267 160.189 15.4825C160.134 15.5382 160.05 15.5661 159.966 15.5939C159.994 15.5939 160.022 15.6218 160.05 15.6497L160.134 15.7333C160.134 15.7333 160.162 15.789 160.217 15.8726L160.357 16.0956H160.078L159.994 15.9005C159.939 15.7612 159.883 15.7054 159.827 15.6497C159.771 15.6218 159.744 15.5939 159.66 15.5939H159.604V16.0677H159.325V16.0956ZM159.548 15.4267H159.632C159.771 15.4267 159.855 15.4267 159.883 15.3989C159.911 15.3989 159.939 15.371 159.966 15.3431C159.994 15.3153 159.994 15.2874 159.994 15.2595C159.994 15.2317 159.994 15.2038 159.966 15.1759C159.939 15.148 159.911 15.1202 159.883 15.1202C159.855 15.1202 159.771 15.0923 159.632 15.0923H159.548V15.4267ZM20.8451 3.22017L10.7845 20.889L14.0451 26.6579L24.0779 8.93329L20.8451 3.22017ZM25.8058 11.971L15.773 29.6677L18.3648 34.2939H23.2976L30.8779 20.9448L25.8058 11.971ZM9.47465 3.49886L0.417273 19.4677H8.27629L19.173 0.293945L9.47465 3.49886ZM14.9648 34.2939L8.22055 22.4497L0.389404 22.4218L7.1058 34.2939H14.9648Z" fill="white"/>
</svg>
