<svg width="68" height="68" viewBox="0 0 68 68" fill="none" xmlns="http://www.w3.org/2000/svg">
<path d="M61.524 11.8711H6.47634C5.8829 11.8711 5.39697 12.356 5.39697 12.9505V52.887H62.6033V12.9505C62.6033 12.356 62.1174 11.8711 61.524 11.8711Z" fill="#434A54"/>
<path d="M7.55566 14.0312H60.4446V47.4916H7.55566V14.0312Z" fill="#5D9CEC"/>
<path d="M24.5933 47.4916H31.2982L40.2646 14.0312H33.5592L24.5933 47.4916Z" fill="#87BCF4"/>
<path d="M35.7694 47.4916L44.7343 14.0312H42.4991L33.5327 47.4916H35.7694Z" fill="#87BCF4"/>
<path d="M4.31755 52.3489H2.15882C1.86105 52.3489 1.61914 52.107 1.61914 51.8092C1.61914 51.5114 1.86105 51.2695 2.15882 51.2695H4.31755C4.61533 51.2695 4.85724 51.5114 4.85724 51.8092C4.85724 52.107 4.61533 52.3489 4.31755 52.3489Z" fill="#545C66"/>
<path d="M8.63494 52.3489H6.47621C6.17843 52.3489 5.93652 52.107 5.93652 51.8092C5.93652 51.5114 6.17843 51.2695 6.47621 51.2695H8.63494C8.93271 51.2695 9.17462 51.5114 9.17462 51.8092C9.17462 52.107 8.93271 52.3489 8.63494 52.3489Z" fill="#545C66"/>
<path d="M12.9523 52.3489H10.7936C10.4958 52.3489 10.2539 52.107 10.2539 51.8092C10.2539 51.5114 10.4958 51.2695 10.7936 51.2695H12.9523C13.2501 51.2695 13.492 51.5114 13.492 51.8092C13.492 52.107 13.2501 52.3489 12.9523 52.3489Z" fill="#545C66"/>
<path d="M17.2702 52.3489H15.1115C14.8137 52.3489 14.5718 52.107 14.5718 51.8092C14.5718 51.5114 14.8137 51.2695 15.1115 51.2695H17.2702C17.568 51.2695 17.8099 51.5114 17.8099 51.8092C17.8099 52.107 17.568 52.3489 17.2702 52.3489Z" fill="#545C66"/>
<path d="M21.5876 52.3489H19.4288C19.1311 52.3489 18.8892 52.107 18.8892 51.8092C18.8892 51.5114 19.1311 51.2695 19.4288 51.2695H21.5876C21.8853 51.2695 22.1273 51.5114 22.1273 51.8092C22.1273 52.107 21.8853 52.3489 21.5876 52.3489Z" fill="#545C66"/>
<path d="M25.905 52.3489H23.7462C23.4485 52.3489 23.2065 52.107 23.2065 51.8092C23.2065 51.5114 23.4485 51.2695 23.7462 51.2695H25.905C26.2027 51.2695 26.4446 51.5114 26.4446 51.8092C26.4446 52.107 26.2027 52.3489 25.905 52.3489Z" fill="#545C66"/>
<path d="M44.2541 52.3489H42.0953C41.7976 52.3489 41.5557 52.107 41.5557 51.8092C41.5557 51.5114 41.7976 51.2695 42.0953 51.2695H44.2541C44.5518 51.2695 44.7938 51.5114 44.7938 51.8092C44.7938 52.107 44.5518 52.3489 44.2541 52.3489Z" fill="#545C66"/>
<path d="M39.9363 52.3489H28.0538C27.7555 52.3489 27.5142 52.107 27.5142 51.8092C27.5142 51.5114 27.7555 51.2695 28.0538 51.2695H39.9363C40.2341 51.2695 40.476 51.5114 40.476 51.8092C40.476 52.107 40.2341 52.3489 39.9363 52.3489Z" fill="#545C66"/>
<path d="M48.5715 52.3489H46.4127C46.115 52.3489 45.873 52.107 45.873 51.8092C45.873 51.5114 46.115 51.2695 46.4127 51.2695H48.5715C48.8692 51.2695 49.1111 51.5114 49.1111 51.8092C49.1111 52.107 48.8692 52.3489 48.5715 52.3489Z" fill="#545C66"/>
<path d="M52.8888 52.3489H50.7301C50.4323 52.3489 50.1904 52.107 50.1904 51.8092C50.1904 51.5114 50.4323 51.2695 50.7301 51.2695H52.8888C53.1866 51.2695 53.4285 51.5114 53.4285 51.8092C53.4285 52.107 53.1866 52.3489 52.8888 52.3489Z" fill="#545C66"/>
<path d="M57.2067 52.3489H55.048C54.7502 52.3489 54.5083 52.107 54.5083 51.8092C54.5083 51.5114 54.7502 51.2695 55.048 51.2695H57.2067C57.5045 51.2695 57.7464 51.5114 57.7464 51.8092C57.7464 52.107 57.5045 52.3489 57.2067 52.3489Z" fill="#545C66"/>
<path d="M61.5241 52.3489H59.3654C59.0676 52.3489 58.8257 52.107 58.8257 51.8092C58.8257 51.5114 59.0676 51.2695 59.3654 51.2695H61.5241C61.8219 51.2695 62.0638 51.5114 62.0638 51.8092C62.0638 52.107 61.8219 52.3489 61.5241 52.3489Z" fill="#545C66"/>
<path d="M65.8415 52.3489H63.6828C63.385 52.3489 63.1431 52.107 63.1431 51.8092C63.1431 51.5114 63.385 51.2695 63.6828 51.2695H65.8415C66.1393 51.2695 66.3812 51.5114 66.3812 51.8092C66.3812 52.107 66.1393 52.3489 65.8415 52.3489Z" fill="#545C66"/>
<path d="M68 51.8086V53.9673C68 55.1642 67.0392 56.126 65.8413 56.126H2.15873C0.961837 56.126 0 55.1642 0 53.9673V51.8086H68Z" fill="#656D78"/>
<path d="M40.472 52.3483C40.472 52.0516 40.229 51.8086 39.9323 51.8086H28.0582C27.7615 51.8086 27.5186 52.0516 27.5186 52.3483C27.5186 52.645 27.7615 52.888 28.0582 52.888H39.9323C40.229 52.888 40.472 52.645 40.472 52.3483Z" fill="#AAB2BD"/>
<path d="M27.5186 51.8086H40.472V52.3483H27.5186V51.8086Z" fill="#AAB2BD"/>
</svg>
