<svg width="26" height="24" viewBox="0 0 26 24" fill="none" xmlns="http://www.w3.org/2000/svg">
<rect width="26" height="24" fill="white"/>
<g clip-path="url(#clip0)">
<path d="M21.0756 12.5907C21.0756 12.5485 21.064 12.5183 21.0402 12.4986C21.0138 12.4774 20.9682 12.466 20.9047 12.466H20.8134V12.717H20.9236C21.0254 12.717 21.0756 12.6748 21.0756 12.5907ZM21.218 13.1141H21.0925L21.0125 12.9375C20.9718 12.849 20.9284 12.8047 20.8809 12.8047H20.8134V13.1141H20.71V12.3779H20.9171C21.0093 12.3779 21.0784 12.3979 21.1259 12.4395C21.1662 12.4753 21.1863 12.5212 21.1863 12.5783C21.1863 12.629 21.1699 12.6716 21.1368 12.707C21.1046 12.7428 21.0583 12.7669 20.9992 12.7794V12.7826C21.0402 12.7923 21.0813 12.8373 21.1211 12.9186L21.218 13.1145V13.1141ZM21.4473 12.7532C21.4473 12.6084 21.3979 12.4861 21.2993 12.3892C21.2003 12.2923 21.0796 12.2436 20.9373 12.2436C20.7904 12.2436 20.6682 12.2923 20.5712 12.39C20.4742 12.4882 20.426 12.6096 20.426 12.7532C20.426 12.9001 20.4763 13.0228 20.576 13.1205C20.6746 13.2183 20.7953 13.2665 20.9373 13.2665C21.0784 13.2665 21.1991 13.2179 21.2985 13.1189C21.3979 13.0215 21.4473 12.8993 21.4473 12.7532ZM21.5169 12.7501C21.5169 12.9126 21.461 13.049 21.3488 13.1588C21.2365 13.2694 21.099 13.3245 20.9344 13.3245C20.7687 13.3245 20.6312 13.2702 20.5217 13.1636C20.4123 13.0554 20.358 12.9194 20.358 12.7545C20.358 12.5932 20.4135 12.4576 20.5245 12.3462C20.6356 12.2352 20.7739 12.1797 20.9393 12.1797C21.1014 12.1797 21.2373 12.2328 21.3476 12.3386C21.4606 12.4472 21.5169 12.5839 21.5169 12.7501Z" fill="black"/>
<path d="M5.78352 14.8043H5.42673V12.7625C5.42673 12.6012 5.43735 12.4049 5.45634 12.1732H5.44829C5.41489 12.3087 5.38432 12.4069 5.35738 12.4676L4.32036 14.8043H4.14658L3.10753 12.4845C3.07825 12.4197 3.04761 12.3155 3.01662 12.1732H3.0089C3.01984 12.295 3.02595 12.4926 3.02595 12.7665V14.8043H2.68201V11.7637H3.15265L4.08551 13.884C4.15589 14.0437 4.20136 14.1652 4.22346 14.248H4.23827C4.29899 14.0819 4.34726 13.9572 4.38389 13.8751L5.33682 11.7637H5.78333V14.8043H5.78352Z" fill="black"/>
<path d="M6.88104 14.8027H6.53433V12.6313H6.88104V14.8027ZM6.941 11.8529C6.941 11.9169 6.91847 11.9704 6.8738 12.0143C6.82997 12.0581 6.77568 12.0802 6.7121 12.0802C6.65015 12.0802 6.59624 12.059 6.55203 12.0167C6.50778 11.974 6.48602 11.9197 6.48602 11.8529C6.48602 11.7902 6.5079 11.7367 6.55203 11.6933C6.59624 11.6498 6.65015 11.6289 6.7121 11.6289C6.77565 11.6289 6.82997 11.6498 6.8738 11.6933C6.91847 11.7367 6.941 11.7902 6.941 11.8529Z" fill="black"/>
<path d="M9.04797 14.7021C8.88143 14.8042 8.68272 14.8549 8.45301 14.8549C8.1417 14.8549 7.89108 14.7515 7.6996 14.5452C7.51375 14.3448 7.42004 14.0862 7.42004 13.7692C7.42004 13.4136 7.5218 13.1256 7.72695 12.9068C7.93091 12.6875 8.20526 12.5781 8.55039 12.5781C8.73904 12.5781 8.90638 12.6151 9.0528 12.6883V13.0452C8.8907 12.9313 8.71934 12.875 8.53549 12.875C8.31425 12.875 8.13446 12.9522 7.99486 13.1063C7.84962 13.264 7.77603 13.4748 7.77603 13.7379C7.77603 13.9905 7.84322 14.1904 7.97677 14.338C8.11071 14.4848 8.28892 14.5585 8.51377 14.5585C8.70363 14.5585 8.88143 14.4961 9.04797 14.3718V14.7021Z" fill="black"/>
<path d="M10.7065 12.9859C10.6454 12.9389 10.5573 12.9159 10.441 12.9159C10.2998 12.9159 10.1812 12.9791 10.085 13.1066C9.976 13.249 9.92171 13.4461 9.92171 13.6979V14.8049H9.57416V12.6335H9.92171V13.0812H9.93008C9.98118 12.9228 10.06 12.8009 10.1654 12.7144C10.264 12.6355 10.3754 12.5957 10.4981 12.5957C10.5906 12.5957 10.6594 12.6057 10.7064 12.6253V12.9857L10.7065 12.9859Z" fill="black"/>
<path d="M12.6435 13.7211C12.6435 13.4432 12.5808 13.2308 12.4553 13.0851C12.3334 12.9452 12.1632 12.8752 11.944 12.8752C11.728 12.8752 11.5546 12.946 11.4251 13.0876C11.2879 13.2388 11.2195 13.4524 11.2195 13.7296C11.2195 13.9894 11.2847 14.1934 11.4163 14.339C11.547 14.4854 11.7232 14.5586 11.944 14.5586C12.1725 14.5586 12.3475 14.4842 12.4673 14.3362C12.5848 14.1914 12.6435 13.9866 12.6435 13.7211ZM12.9999 13.7089C12.9999 14.0548 12.9022 14.3328 12.7075 14.5412C12.512 14.7503 12.2489 14.8549 11.9183 14.8549C11.5925 14.8549 11.333 14.7503 11.1427 14.5412C10.9565 14.3396 10.8628 14.0733 10.8628 13.7423C10.8628 13.3645 10.9685 13.0733 11.1809 12.8665C11.3772 12.6747 11.6399 12.5781 11.969 12.5781C12.2928 12.5781 12.5458 12.6791 12.728 12.879C12.9086 13.0801 12.9999 13.3569 12.9999 13.7089Z" fill="black"/>
<path d="M14.7236 14.2218C14.7236 14.3996 14.6572 14.5468 14.5241 14.6642C14.3789 14.7914 14.1793 14.8549 13.9283 14.8549C13.7228 14.8549 13.5425 14.8119 13.3897 14.7242V14.3505C13.5599 14.4889 13.7477 14.5585 13.9541 14.5585C14.2292 14.5585 14.3672 14.4571 14.3672 14.2552C14.3672 14.1703 14.3369 14.0999 14.2759 14.0456C14.2147 13.9901 14.096 13.9237 13.9195 13.846C13.7376 13.7664 13.6081 13.6848 13.5317 13.5999C13.44 13.4993 13.3937 13.3686 13.3937 13.2077C13.3937 13.0275 13.4657 12.8774 13.6081 12.7579C13.7509 12.6381 13.9343 12.5781 14.1596 12.5781C14.3322 12.5781 14.4867 12.6119 14.6238 12.6799V13.0299C14.4806 12.9265 14.3169 12.875 14.1311 12.875C14.016 12.875 13.9235 12.9036 13.8547 12.9595C13.7851 13.0166 13.7501 13.0894 13.7501 13.1783C13.7501 13.2744 13.7794 13.3493 13.8374 13.4028C13.8889 13.4522 13.9983 13.5126 14.1632 13.583C14.3487 13.6606 14.4826 13.7411 14.5643 13.8235C14.6701 13.9277 14.7236 14.0605 14.7236 14.2218Z" fill="black"/>
<path d="M16.8477 13.7211C16.8477 13.4432 16.7849 13.2308 16.659 13.0851C16.5375 12.9452 16.367 12.8752 16.1481 12.8752C15.9321 12.8752 15.7587 12.946 15.6284 13.0876C15.4917 13.2388 15.4237 13.4524 15.4237 13.7296C15.4237 13.9894 15.4888 14.1934 15.6191 14.339C15.7515 14.4854 15.9277 14.5586 16.1481 14.5586C16.377 14.5586 16.5516 14.4842 16.6715 14.3362C16.7889 14.1914 16.8477 13.9866 16.8477 13.7211ZM17.2049 13.7089C17.2049 14.0548 17.1063 14.3328 16.9112 14.5412C16.7165 14.7503 16.4534 14.8549 16.1228 14.8549C15.7966 14.8549 15.5371 14.7503 15.3468 14.5412C15.1606 14.3396 15.0669 14.0733 15.0669 13.7423C15.0669 13.3645 15.1735 13.0733 15.3847 12.8665C15.581 12.6747 15.844 12.5781 16.1735 12.5781C16.4973 12.5781 16.7499 12.6791 16.9317 12.879C17.1128 13.0801 17.2049 13.3569 17.2049 13.7089Z" fill="black"/>
<path d="M18.7364 11.8945C18.668 11.8567 18.592 11.8374 18.5055 11.8374C18.2621 11.8374 18.1414 11.9907 18.1414 12.2976V12.6323H18.6503V12.9267H18.1414V14.8037H17.7935V12.9267H17.4242V12.6323H17.7935V12.2803C17.7935 12.0414 17.8667 11.8539 18.0155 11.7187C18.143 11.6013 18.2991 11.543 18.4845 11.543C18.592 11.543 18.6756 11.5558 18.7364 11.5808V11.8945Z" fill="black"/>
<path d="M20.1081 14.7823C20.0261 14.8294 19.9167 14.8527 19.7815 14.8527C19.4026 14.8527 19.2131 14.6391 19.2131 14.2119V12.9275H18.8406V12.6326H19.2131V12.1029C19.3242 12.0679 19.4396 12.0297 19.5615 11.9902V12.6326H20.1081V12.9275H19.5615V14.1528C19.5615 14.2984 19.5853 14.4026 19.6351 14.4629C19.6854 14.5253 19.7674 14.5558 19.8833 14.5558C19.9698 14.5558 20.0446 14.5327 20.1081 14.4859V14.7823Z" fill="black"/>
<path d="M1.31945 23.2768C1.31945 23.4469 1.25872 23.5941 1.13601 23.7185C1.01373 23.8424 0.865278 23.9047 0.691116 23.9047C0.520944 23.9047 0.37613 23.8424 0.25748 23.7185C0.138798 23.5941 0.0796814 23.4469 0.0796814 23.2768C0.0796814 23.1018 0.138798 22.9542 0.25748 22.8319C0.37613 22.7092 0.520944 22.6484 0.691116 22.6484C0.865278 22.6484 1.01373 22.71 1.13601 22.8343C1.25872 22.9586 1.31945 23.1062 1.31945 23.2768Z" fill="black"/>
<path d="M9.10141 23.779H7.96785L3.85316 17.4245C3.757 17.2717 3.67413 17.1055 3.60375 16.9241H3.56993C3.59922 17.0943 3.61421 17.4595 3.61421 18.0191V23.779H2.67975V15.8066H3.89258L7.88418 22.061C8.04309 22.3091 8.15167 22.4869 8.2068 22.5939H8.229C8.19199 22.3647 8.17271 21.9737 8.17271 21.4218V15.8066H9.10152V23.779H9.10141Z" fill="black"/>
<path d="M15.0921 23.779H10.8667V15.8066H14.9086V16.6514H11.8004V19.3035H14.6806V20.1486H11.8004V22.9339H15.0921V23.779Z" fill="black"/>
<path d="M21.5012 16.6498H19.2047V23.7775H18.2707V16.6498H15.9697V15.8047H21.5012V16.6498Z" fill="black"/>
<path d="M8.78455 2.03485C9.686 4.79151 10.0275 9.70915 12.6635 9.70915C12.8643 9.70915 13.067 9.68951 13.2705 9.6508C10.8743 9.09208 10.5903 4.22793 9.12807 1.70898C9.01342 1.81318 8.89959 1.92179 8.78455 2.03485Z" fill="url(#paint0_linear)"/>
<path d="M9.12808 1.70954C10.5903 4.22849 10.8743 9.09264 13.2705 9.65136C13.4588 9.61677 13.6475 9.56447 13.8365 9.4985C11.6856 8.44458 11.0911 3.72125 9.43058 1.44727C9.33001 1.53097 9.22905 1.61866 9.12808 1.70954Z" fill="url(#paint1_linear)"/>
<path d="M11.2349 0.210938C11.0346 0.210938 10.8314 0.230564 10.6275 0.269283C10.0941 0.369844 9.55225 0.599519 9.00598 0.947072C9.15521 1.0943 9.29719 1.26283 9.43074 1.44668C9.98627 0.985687 10.5382 0.644987 11.0881 0.440222C11.2944 0.363796 11.5 0.306288 11.7063 0.268478C11.5575 0.230628 11.4006 0.210938 11.2349 0.210938Z" fill="#14559A"/>
<path d="M15.5156 8.52632C15.7356 8.35136 15.956 8.15785 16.1769 7.94669C15.2609 5.20286 14.9331 0.214844 12.2786 0.214844C12.0887 0.214844 11.8973 0.232542 11.7062 0.267938C14.1242 0.869333 14.4339 6.13008 15.5156 8.52632Z" fill="url(#paint2_linear)"/>
<path d="M11.7062 0.268438C11.5574 0.230628 11.4005 0.210938 11.2348 0.210938L12.2786 0.214762C12.0888 0.214762 11.8973 0.23246 11.7062 0.268279" fill="#3092C4"/>
<path d="M15.4692 9.11052C15.3654 9.01157 15.2669 8.90296 15.1699 8.78711C14.7234 9.10328 14.2785 9.34303 13.8364 9.49911C13.9937 9.57595 14.1586 9.63308 14.3336 9.66848C14.4692 9.69615 14.6096 9.71031 14.7572 9.71031C15.2532 9.71031 15.6454 9.65158 15.9792 9.49148C15.7954 9.39211 15.6269 9.26338 15.4692 9.11052Z" fill="#1969BC"/>
<path d="M11.0879 0.440167C13.2537 1.57292 13.4419 6.70254 15.17 8.78544C15.2859 8.70379 15.4005 8.6173 15.5152 8.52596C14.4335 6.12972 14.1241 0.868551 11.7066 0.267578C11.5002 0.306193 11.2942 0.363351 11.0879 0.440167Z" fill="url(#paint3_linear)"/>
<path d="M9.43057 1.44744C11.0911 3.72142 11.6856 8.44476 13.8365 9.49868C14.2786 9.3426 14.7235 9.10285 15.17 8.78668C13.4419 6.70378 13.2536 1.57416 11.0879 0.441406C10.538 0.645749 9.98609 0.986449 9.43057 1.44744Z" fill="url(#paint4_linear)"/>
<path d="M7.72214 1.9686C7.46187 2.55713 7.19598 3.33065 6.87457 4.34032C7.51376 3.43965 8.15094 2.6637 8.7845 2.03499C8.69721 1.76667 8.60349 1.51929 8.50252 1.29883C8.24347 1.49715 7.9824 1.72042 7.72214 1.9686Z" fill="url(#paint5_linear)"/>
<path d="M8.73332 1.12891C8.65688 1.18361 8.58007 1.23954 8.50284 1.29866C8.60379 1.5191 8.69711 1.7665 8.78442 2.03479C8.89944 1.92216 9.01367 1.81316 9.12792 1.70896C9.00524 1.49817 8.87491 1.30348 8.73332 1.12891Z" fill="#2B74B1"/>
<path d="M9.00597 0.947266C8.91506 1.00481 8.82457 1.06553 8.73325 1.12908C8.87484 1.30366 9.00517 1.49836 9.12827 1.70956C9.22924 1.61823 9.33019 1.53015 9.43076 1.44687C9.29721 1.26306 9.15523 1.09449 9.00597 0.947266Z" fill="#125A9E"/>
<path d="M23.7784 0.00110762C22.5535 4.72483 19.9951 8.51894 17.8503 9.47551H17.8462C17.8072 9.49321 17.7686 9.5093 17.7304 9.52497C17.7251 9.52816 17.7203 9.52855 17.7163 9.53047C17.705 9.53501 17.6946 9.53851 17.6833 9.54302C17.678 9.5462 17.6733 9.54724 17.6684 9.54915C17.6503 9.55561 17.6326 9.56107 17.6149 9.56814C17.6073 9.57133 17.6001 9.57332 17.5928 9.57587C17.5847 9.57906 17.5755 9.58201 17.5662 9.58456C17.5582 9.58775 17.5498 9.59006 17.5405 9.59357C17.5328 9.59676 17.5248 9.59811 17.5176 9.6013C17.5019 9.60584 17.4874 9.60967 17.4717 9.61513C17.4653 9.61513 17.4593 9.61864 17.4524 9.62031C17.4428 9.6235 17.4319 9.62581 17.4214 9.62868C17.4142 9.63187 17.4082 9.6329 17.4005 9.6345C17.3896 9.63768 17.3776 9.64063 17.3667 9.64319C17.3522 9.64638 17.3394 9.64932 17.3257 9.6522C17.4226 9.68801 17.5236 9.7061 17.6326 9.7061C19.6664 9.7061 21.7171 6.06125 25.1102 0H23.7779L23.7784 0.00110762Z" fill="url(#paint6_linear)"/>
<path d="M6.43289 0.402698C6.43417 0.402698 6.43576 0.39951 6.43656 0.39951C6.43815 0.39951 6.44062 0.39951 6.44142 0.396323H6.44397C6.45523 0.392498 6.46569 0.387956 6.47695 0.383772C6.47982 0.383772 6.48133 0.383772 6.4834 0.380585C6.48627 0.380585 6.48906 0.377398 6.49187 0.376999C6.50394 0.373174 6.516 0.368632 6.52727 0.364449H6.52918C6.55615 0.356409 6.58107 0.346432 6.60722 0.337101C6.61088 0.337101 6.61447 0.333914 6.61887 0.333914C6.62975 0.330408 6.64101 0.326503 6.65226 0.323937C6.65752 0.32075 6.66272 0.32075 6.66754 0.319077C6.67919 0.31557 6.69049 0.311666 6.70133 0.3091C6.70619 0.3091 6.7106 0.305913 6.7142 0.305594C6.75161 0.295299 6.78862 0.285641 6.82603 0.276629C6.83129 0.276629 6.83569 0.273441 6.84132 0.273122C6.85216 0.269935 6.86224 0.268262 6.8739 0.266668C6.87876 0.263481 6.88436 0.263481 6.88999 0.261807C6.90084 0.25862 6.91129 0.258301 6.92298 0.255672H6.93063C6.95315 0.25113 6.97609 0.247305 6.99861 0.243121H7.01229C7.02313 0.239934 7.03279 0.239615 7.04367 0.237623C7.04964 0.237623 7.05573 0.234436 7.06136 0.234436C7.07141 0.234436 7.08148 0.231248 7.09152 0.229894C7.09678 0.229894 7.10197 0.229894 7.10803 0.226706C7.13174 0.223519 7.15629 0.222244 7.18123 0.220252C7.11084 0.213479 7.03843 0.208984 6.96482 0.208984C4.67436 0.208984 1.51863 4.45884 0.0970459 9.96255H0.370985C0.82594 9.15121 1.23464 8.3837 1.60833 7.66324C2.60393 3.76496 4.63172 1.10641 6.43304 0.402068" fill="url(#paint7_linear)"/>
<path d="M7.72214 1.96843C7.98241 1.72025 8.24347 1.49698 8.50252 1.29869C8.4434 1.16916 8.38226 1.04928 8.31667 0.939453C8.10711 1.19368 7.91564 1.52917 7.72214 1.96843Z" fill="#0D82CA"/>
<path d="M7.91031 0.434791C8.05995 0.560294 8.19389 0.732875 8.31659 0.939641C8.35521 0.892173 8.39425 0.848314 8.43486 0.807285C8.26472 0.648402 8.08087 0.518069 7.88135 0.419922C7.8894 0.424384 7.89744 0.42797 7.9058 0.431508C7.9058 0.431508 7.90899 0.434695 7.91035 0.434695" fill="#0D82CA"/>
<path d="M1.60825 7.66354C3.69677 3.63892 4.68633 1.09181 6.43294 0.402344C4.63203 1.10713 2.60384 3.76565 1.60825 7.66354Z" fill="url(#paint8_linear)"/>
<path d="M8.43476 0.808594C8.39415 0.850046 8.35554 0.89349 8.3165 0.940958C8.38208 1.05076 8.4432 1.17024 8.50276 1.30016C8.57999 1.24104 8.65681 1.18511 8.73324 1.13041C8.63873 1.01375 8.53896 0.905554 8.43476 0.808594Z" fill="#127BCA"/>
<path d="M2.55636 9.94612C2.54349 9.9493 2.53062 9.9493 2.51855 9.95066H2.51131C2.50043 9.95066 2.48917 9.95385 2.47913 9.95385H2.47388C2.44775 9.95703 2.42199 9.95703 2.39705 9.95903H2.38901C4.50288 9.89988 5.46911 8.84151 5.9486 7.30649C6.31304 6.14277 6.61233 5.16245 6.87461 4.33984C5.98923 5.58605 5.09983 7.07157 4.20561 8.73573C3.77439 9.53784 3.11871 9.8729 2.55635 9.94454" fill="url(#paint9_linear)"/>
<path d="M2.55637 9.94322C3.11872 9.87158 3.77441 9.5369 4.20563 8.73441C5.09985 7.07067 5.98965 5.58472 6.87422 4.33852C7.19602 3.32843 7.46152 2.55532 7.72218 1.9668C5.95908 3.64503 4.18914 6.43552 2.55637 9.94241" fill="url(#paint10_linear)"/>
<path d="M1.60814 7.66406C1.23445 8.38452 0.82576 9.15204 0.370789 9.96338H1.16768C1.27307 9.15763 1.42271 8.38932 1.60814 7.66445" fill="#05A1E6"/>
<path d="M7.10792 0.229041C7.10146 0.229041 7.09665 0.232228 7.09102 0.232228C7.08136 0.235415 7.07129 0.235415 7.06125 0.236451C7.05528 0.236451 7.0496 0.236451 7.04355 0.239639C7.03268 0.242826 7.02264 0.243145 7.01217 0.245137C7.00731 0.245137 7.00252 0.245137 6.9985 0.248324C6.97555 0.252149 6.95304 0.256373 6.93051 0.260229H6.92286C6.91121 0.263417 6.90073 0.26509 6.88988 0.266684C6.88422 0.269871 6.87862 0.269871 6.87337 0.271146C6.86253 0.274333 6.85165 0.275688 6.84119 0.2776C6.83554 0.280788 6.83115 0.280788 6.8259 0.281107C6.7885 0.290119 6.75149 0.299777 6.71407 0.310072C6.71009 0.310072 6.70603 0.313259 6.70121 0.313897C6.68995 0.317084 6.67907 0.320351 6.66742 0.323873C6.66256 0.327061 6.65696 0.327061 6.65213 0.328336C6.64087 0.331523 6.6296 0.33479 6.61874 0.338312C6.61436 0.338312 6.6107 0.3415 6.60668 0.3415C6.58093 0.351149 6.55559 0.360807 6.52904 0.368855C6.51778 0.372361 6.50571 0.376895 6.49364 0.381079C6.48878 0.384266 6.48438 0.384983 6.47877 0.387215C6.46751 0.390721 6.45625 0.395263 6.44578 0.399446C6.4418 0.402634 6.43774 0.402952 6.43494 0.404626C4.68833 1.0941 3.69877 3.64121 1.61024 7.66583C1.4248 8.3907 1.27476 9.15901 1.16977 9.96473H1.2816C1.59657 9.96473 1.68547 9.96154 2.0479 9.96154H2.0664H2.12031H2.13881H2.14406H2.16256H2.17302H2.18026H2.19474H2.2398H2.28485H2.32266H2.3327H2.39907C2.42401 9.95835 2.44976 9.95835 2.47591 9.95636H2.48073C2.49161 9.95636 2.50246 9.95317 2.51292 9.95317H2.52054C2.53219 9.95317 2.54548 9.94999 2.55835 9.94863C4.19112 6.44174 5.96106 3.65125 7.72416 1.97302C7.91805 1.53376 8.10913 1.19827 8.31831 0.944457C8.19602 0.737699 8.06207 0.564728 7.91243 0.439193C7.91243 0.439193 7.90836 0.439193 7.90804 0.436005C7.89958 0.432499 7.89157 0.428276 7.88311 0.424101C7.87464 0.419559 7.8674 0.416052 7.85858 0.41155C7.85093 0.408363 7.84208 0.40414 7.83445 0.399964C7.82399 0.396777 7.81553 0.392235 7.8063 0.388051C7.79865 0.384864 7.79181 0.381597 7.78415 0.378401C7.76844 0.372266 7.75278 0.365851 7.73789 0.359094C7.73104 0.355906 7.72463 0.354233 7.71816 0.351683C7.70732 0.347779 7.69483 0.342671 7.68357 0.337842C7.67792 0.334655 7.6715 0.334017 7.66507 0.331706C7.64859 0.326208 7.63249 0.320447 7.6172 0.315291H7.61321C7.5947 0.309156 7.5766 0.304677 7.55769 0.299522C7.55331 0.296334 7.54965 0.296334 7.54524 0.295697C7.52873 0.291155 7.51425 0.286684 7.49858 0.282501C7.49459 0.282501 7.49093 0.279314 7.48773 0.279314C7.44992 0.269337 7.4109 0.261297 7.37148 0.253894C7.36742 0.253894 7.36344 0.250707 7.35942 0.250707C7.34252 0.24752 7.32603 0.244571 7.30914 0.242659C7.30507 0.239471 7.30268 0.239471 7.29909 0.239471C7.27898 0.236284 7.25927 0.233973 7.23955 0.231742H7.2291C7.21301 0.228555 7.19814 0.228236 7.18324 0.226562C7.15789 0.22975 7.13376 0.231105 7.11003 0.233336" fill="url(#paint11_linear)"/>
<path d="M18.9939 2.61488C18.592 3.90211 18.2666 4.96407 17.9834 5.83778C19.086 4.32046 20.1721 2.41172 21.2063 0.208984C20 0.587877 19.3563 1.45518 18.9939 2.61488Z" fill="url(#paint12_linear)"/>
<path d="M18.0184 9.39395C17.9621 9.42259 17.9058 9.44985 17.8503 9.4744C19.9951 8.51783 22.5535 4.72372 23.7784 0H23.5302C20.7159 5.02702 19.8109 8.39232 18.0184 9.39395Z" fill="url(#paint13_linear)"/>
<path d="M16.6179 8.97148C17.0845 8.40189 17.4646 7.43367 17.9835 5.83789C17.385 6.66011 16.7824 7.36689 16.1794 7.94331C16.1794 7.9465 16.1794 7.9465 16.1762 7.94849C16.3078 8.34271 16.4522 8.69064 16.6167 8.97142" fill="#079AE1"/>
<path d="M16.6179 8.97266C16.459 9.16655 16.2908 9.31419 16.1038 9.42361C16.0627 9.44743 16.0213 9.46986 15.9791 9.49038C16.1766 9.59697 16.3922 9.66818 16.6335 9.69673C16.6689 9.70023 16.7039 9.7035 16.7405 9.70606H16.747C16.7634 9.70606 16.7808 9.70606 16.7985 9.70924H16.8056H16.8583H16.915H16.9327H16.9729C16.9794 9.70924 16.9861 9.70924 16.9926 9.70606C17.0051 9.70606 17.0183 9.70606 17.0312 9.70287H17.0357H17.0502C17.0634 9.70287 17.0779 9.69968 17.092 9.69833H17.0952C17.0995 9.69833 17.1039 9.69514 17.1081 9.69514C17.1229 9.69195 17.1384 9.6906 17.1528 9.68837H17.166C17.1824 9.68518 17.1993 9.68319 17.2162 9.68H17.2194H17.2243C17.2581 9.67355 17.2911 9.66713 17.3244 9.65876C17.0477 9.55739 16.816 9.31845 16.6165 8.97814" fill="#1969BC"/>
<path d="M12.6636 9.70925C12.8643 9.70925 13.0671 9.68963 13.2706 9.65052C13.4589 9.61635 13.6475 9.56402 13.8366 9.49805C13.9939 9.57489 14.1588 9.63202 14.3334 9.66742C14.4689 9.69509 14.6097 9.70925 14.7574 9.70925H12.6636Z" fill="#1E5CB3"/>
<path d="M14.7574 9.70906C15.253 9.70906 15.6456 9.65034 15.979 9.49023C16.1765 9.59682 16.3922 9.66803 16.6335 9.69661C16.6689 9.70012 16.7039 9.70338 16.7405 9.70594H16.747C16.7634 9.70594 16.7808 9.70594 16.7985 9.70913H16.8059H16.8586H14.756L14.7574 9.70906Z" fill="#1E5CB3"/>
<path d="M16.8598 9.70952H16.917H16.9347H16.9745C16.9813 9.70952 16.9877 9.70952 16.9941 9.70633C17.0067 9.70633 17.0199 9.70633 17.0332 9.70314H17.0374H17.0522C17.0654 9.70314 17.0799 9.69996 17.0936 9.69868H17.0971C17.1014 9.69868 17.1055 9.6955 17.1097 9.6955C17.1245 9.69231 17.1399 9.69103 17.1543 9.68872C17.1592 9.68872 17.163 9.68872 17.1682 9.68553C17.1846 9.68235 17.2016 9.68067 17.2185 9.67749H17.2217H17.2265C17.2603 9.67104 17.2933 9.66462 17.3267 9.65625C17.4236 9.69204 17.5246 9.71016 17.6336 9.71016L16.8604 9.71334L16.8598 9.70952Z" fill="#1D60B5"/>
<path d="M16.1775 7.9485V7.94531C15.9567 8.15648 15.7362 8.34999 15.5162 8.52495C15.4011 8.61628 15.2865 8.70275 15.1707 8.78443C15.2676 8.90028 15.3662 9.00889 15.4699 9.10785C15.6276 9.26067 15.7961 9.38943 15.98 9.48877C16.0218 9.46817 16.0637 9.44571 16.1043 9.42199C16.2917 9.31258 16.4599 9.16496 16.6188 8.97108C16.4542 8.6903 16.3099 8.34232 16.1783 7.94812" fill="#175FAB"/>
<path d="M22.7442 0H21.7007H21.5969H21.4988H21.4949C21.4274 0.00318738 21.3618 0.00549824 21.297 0.00965777C21.2665 0.0752461 21.2351 0.140827 21.2049 0.206797C20.1707 2.40953 19.0846 4.31827 17.982 5.8356C17.4635 7.43134 17.083 8.3996 16.6163 8.9692C16.8159 9.30951 17.048 9.54883 17.3239 9.65021C17.332 9.64702 17.3384 9.64702 17.3456 9.64535H17.3501C17.355 9.64535 17.3601 9.64216 17.3654 9.64216C17.3766 9.63897 17.3887 9.63698 17.4 9.63348C17.4072 9.63029 17.4132 9.62997 17.4205 9.62766C17.431 9.62447 17.4418 9.62216 17.4515 9.61961C17.4579 9.61642 17.4643 9.61539 17.4708 9.61411C17.4869 9.60893 17.5013 9.6051 17.5166 9.60027C17.5239 9.59708 17.5315 9.59445 17.5396 9.59254C17.5484 9.58935 17.5573 9.58704 17.5653 9.58321C17.5746 9.58002 17.5838 9.57835 17.5919 9.57484C17.5991 9.57166 17.6067 9.56966 17.6136 9.5668C17.6317 9.56034 17.6494 9.55489 17.6675 9.54781C17.6724 9.54781 17.6771 9.54334 17.6824 9.54231C17.6932 9.53777 17.7045 9.53426 17.7154 9.52943C17.7194 9.52624 17.7242 9.52593 17.7294 9.52425C17.7673 9.50848 17.8063 9.49239 17.8453 9.47479H17.8494C17.9049 9.45034 17.9612 9.42289 18.0171 9.39434C19.81 8.39272 20.7151 5.02741 23.5293 0.000390455H22.7433L22.7442 0Z" fill="url(#paint14_linear)"/>
<path d="M7.18121 0.223229C7.18568 0.223229 7.18968 0.223229 7.19408 0.226417C7.20493 0.226417 7.2158 0.226417 7.22667 0.229923H7.23754C7.25724 0.23311 7.27696 0.234783 7.29707 0.237652C7.30074 0.237652 7.30393 0.237652 7.30712 0.240839C7.32359 0.244027 7.3405 0.246656 7.3574 0.249206C7.36106 0.249206 7.36587 0.252394 7.36988 0.252394C7.40851 0.260123 7.44793 0.268163 7.48574 0.27814C7.48932 0.27814 7.49299 0.281327 7.4962 0.281327C7.51229 0.285152 7.52677 0.290013 7.54285 0.294515C7.54771 0.294515 7.55128 0.297702 7.55573 0.29842C7.57465 0.30328 7.59234 0.308077 7.61084 0.314189C7.61164 0.314189 7.61275 0.314189 7.6149 0.317376C7.63057 0.322158 7.64667 0.328317 7.66317 0.333784C7.66962 0.336971 7.67562 0.338326 7.68167 0.339919C7.69294 0.34478 7.70543 0.349569 7.71627 0.354079C7.72273 0.354079 7.72914 0.358542 7.73596 0.360852C7.75083 0.367626 7.76654 0.373721 7.78182 0.38016C7.78987 0.383347 7.79669 0.386933 7.80435 0.38981C7.8132 0.394352 7.82244 0.398503 7.83209 0.401723C7.84013 0.405547 7.84899 0.409763 7.85661 0.413301C7.86507 0.417843 7.87309 0.421349 7.88116 0.425851C8.08069 0.524007 8.26452 0.654753 8.43468 0.813246C8.49743 0.747275 8.56299 0.688125 8.63098 0.635031C8.25888 0.371148 7.83732 0.220703 7.35099 0.220703C7.29467 0.220703 7.23836 0.223891 7.18124 0.228114" fill="#7DCBEC"/>
<path d="M8.43475 0.807121C8.53894 0.904049 8.6387 1.01228 8.73323 1.12893C8.82454 1.06538 8.91505 1.00423 9.00596 0.947111C8.88689 0.828038 8.76139 0.721038 8.63065 0.628906C8.56267 0.681618 8.49751 0.74115 8.43475 0.807121Z" fill="#5EC5ED"/>
<path d="M7.18111 0.22182C7.23823 0.216993 7.29454 0.214981 7.35086 0.214981C7.83719 0.214981 8.25876 0.365426 8.63085 0.628906C9.02345 0.319167 9.49812 0.210959 10.1574 0.210959H6.96469C7.0383 0.210959 7.11031 0.215384 7.18111 0.22182Z" fill="url(#paint15_linear)"/>
<path d="M10.1574 0.211131C9.49813 0.211131 9.02346 0.319339 8.63086 0.629078C8.76119 0.721196 8.8867 0.828197 9.00576 0.947266C9.55244 0.599713 10.0939 0.369621 10.6277 0.269056C10.8312 0.230842 11.0344 0.211131 11.2347 0.211131H10.1574Z" fill="url(#paint16_linear)"/>
<path d="M17.9834 5.84042C18.267 4.9659 18.5916 3.90436 18.9943 2.6167C19.3571 1.45659 19.9995 0.589321 21.2059 0.210812C21.2378 0.146028 21.2679 0.0792523 21.2989 0.0136719C19.3322 0.131549 18.413 1.13195 17.9504 2.61349C17.1415 5.20001 16.6515 6.87663 16.1797 7.94504C16.7823 7.369 17.3849 6.66183 17.9834 5.84042Z" fill="url(#paint17_linear)"/>
<path d="M20.8687 9.02189H20.6458V9.71459H20.5549V9.02189H20.3312V8.93945H20.8687V9.02189Z" fill="black"/>
<path d="M21.7812 9.71263H21.6907V9.19211C21.6907 9.15108 21.6939 9.10081 21.6981 9.04166C21.6888 9.07707 21.681 9.10162 21.674 9.11729L21.4101 9.71263H21.3658L21.1011 9.12173C21.0934 9.10532 21.0857 9.07868 21.0773 9.04166H21.0742C21.0773 9.07288 21.0784 9.12334 21.0784 9.19334V9.71263H20.9915V8.9375H21.1114L21.3491 9.47852C21.3671 9.51917 21.3784 9.55054 21.3841 9.57145H21.3876C21.4034 9.52882 21.4162 9.49702 21.425 9.4761L21.6676 8.9375H21.7818V9.71263H21.7812Z" fill="black"/>
</g>
<defs>
<linearGradient id="paint0_linear" x1="11.0274" y1="0.147669" x2="11.0274" y2="12.0792" gradientUnits="userSpaceOnUse">
<stop stop-color="#0994DC"/>
<stop offset="0.350006" stop-color="#66CEF5"/>
<stop offset="0.846161" stop-color="#127BCA"/>
<stop offset="1" stop-color="#127BCA"/>
</linearGradient>
<linearGradient id="paint1_linear" x1="11.4823" y1="-0.153861" x2="11.4823" y2="12.0818" gradientUnits="userSpaceOnUse">
<stop stop-color="#0E76BC"/>
<stop offset="0.360001" stop-color="#36AEE8"/>
<stop offset="0.846161" stop-color="#00ADEF"/>
<stop offset="1" stop-color="#00ADEF"/>
</linearGradient>
<linearGradient id="paint2_linear" x1="13.9415" y1="9.43408" x2="13.9415" y2="-0.301628" gradientUnits="userSpaceOnUse">
<stop stop-color="#1C63B7"/>
<stop offset="0.5" stop-color="#33BDF2"/>
<stop offset="1" stop-color="#33BDF2" stop-opacity="0.419608"/>
</linearGradient>
<linearGradient id="paint3_linear" x1="13.3016" y1="-1.39468" x2="13.3016" y2="11.3091" gradientUnits="userSpaceOnUse">
<stop stop-color="#166AB8"/>
<stop offset="0.399994" stop-color="#36AEE8"/>
<stop offset="0.846161" stop-color="#0798DD"/>
<stop offset="1" stop-color="#0798DD"/>
</linearGradient>
<linearGradient id="paint4_linear" x1="12.3002" y1="-1.32668" x2="12.3002" y2="12.1821" gradientUnits="userSpaceOnUse">
<stop stop-color="#124379"/>
<stop offset="0.389999" stop-color="#1487CB"/>
<stop offset="0.780228" stop-color="#165197"/>
<stop offset="1" stop-color="#165197"/>
</linearGradient>
<linearGradient id="paint5_linear" x1="6.87458" y1="2.81959" x2="8.78451" y2="2.81959" gradientUnits="userSpaceOnUse">
<stop stop-color="#33BDF2" stop-opacity="0.698039"/>
<stop offset="1" stop-color="#1DACD8"/>
</linearGradient>
<linearGradient id="paint6_linear" x1="21.2187" y1="9.19036" x2="21.2187" y2="-0.293569" gradientUnits="userSpaceOnUse">
<stop stop-color="#136AB4"/>
<stop offset="0.6" stop-color="#59CAF5" stop-opacity="0.54902"/>
<stop offset="1" stop-color="#59CAF5" stop-opacity="0.235294"/>
</linearGradient>
<linearGradient id="paint7_linear" x1="0.096992" y1="5.08574" x2="7.18118" y2="5.08574" gradientUnits="userSpaceOnUse">
<stop stop-color="#05A1E6" stop-opacity="0.247059"/>
<stop offset="1" stop-color="#05A1E6"/>
</linearGradient>
<linearGradient id="paint8_linear" x1="4.02051" y1="9.42901" x2="4.02051" y2="-0.281761" gradientUnits="userSpaceOnUse">
<stop stop-color="#318ED5"/>
<stop offset="1" stop-color="#38A7E4"/>
</linearGradient>
<linearGradient id="paint9_linear" x1="4.63174" y1="9.46453" x2="4.63174" y2="0.0251327" gradientUnits="userSpaceOnUse">
<stop stop-color="#05A1E6"/>
<stop offset="1" stop-color="#05A1E6" stop-opacity="0.54902"/>
</linearGradient>
<linearGradient id="paint10_linear" x1="5.13928" y1="9.94405" x2="5.13928" y2="1.96761" gradientUnits="userSpaceOnUse">
<stop stop-color="#1959A6"/>
<stop offset="0.5" stop-color="#05A1E6"/>
<stop offset="0.917587" stop-color="#7EC5EA"/>
<stop offset="1" stop-color="#7EC5EA"/>
</linearGradient>
<linearGradient id="paint11_linear" x1="5.44489" y1="9.43572" x2="2.74108" y2="1.17273" gradientUnits="userSpaceOnUse">
<stop stop-color="#165096"/>
<stop offset="1" stop-color="#0D82CA"/>
</linearGradient>
<linearGradient id="paint12_linear" x1="19.5947" y1="4.54305" x2="19.5947" y2="0.0232938" gradientUnits="userSpaceOnUse">
<stop stop-color="#05A1E6"/>
<stop offset="0.873627" stop-color="#0495D6"/>
<stop offset="1" stop-color="#0495D6"/>
</linearGradient>
<linearGradient id="paint13_linear" x1="21.7191" y1="-0.394271" x2="17.5067" y2="8.95852" gradientUnits="userSpaceOnUse">
<stop stop-color="#38A7E4" stop-opacity="0.329412"/>
<stop offset="0.961533" stop-color="#0E88D3"/>
<stop offset="1" stop-color="#0E88D3"/>
</linearGradient>
<linearGradient id="paint14_linear" x1="20.074" y1="-0.028543" x2="20.074" y2="9.83182" gradientUnits="userSpaceOnUse">
<stop stop-color="#168CD4"/>
<stop offset="0.5" stop-color="#1C87CC"/>
<stop offset="1" stop-color="#154B8D"/>
</linearGradient>
<linearGradient id="paint15_linear" x1="7.49704" y1="-0.230247" x2="7.53977" y2="0.803884" gradientUnits="userSpaceOnUse">
<stop stop-color="#97D6EE"/>
<stop offset="0.703293" stop-color="#55C1EA"/>
<stop offset="1" stop-color="#55C1EA"/>
</linearGradient>
<linearGradient id="paint16_linear" x1="8.81027" y1="0.900886" x2="9.0034" y2="-0.194543" gradientUnits="userSpaceOnUse">
<stop stop-color="#7ACCEC"/>
<stop offset="1" stop-color="#3FB7ED"/>
</linearGradient>
<linearGradient id="paint17_linear" x1="18.7391" y1="0.51833" x2="18.7391" y2="10.1628" gradientUnits="userSpaceOnUse">
<stop stop-color="#1DA7E7"/>
<stop offset="1" stop-color="#37ABE7" stop-opacity="0"/>
</linearGradient>
<clipPath id="clip0">
<rect width="25.1803" height="24" fill="white"/>
</clipPath>
</defs>
</svg>
