<svg width="68" height="68" viewBox="0 0 68 68" fill="none" xmlns="http://www.w3.org/2000/svg">
<g clip-path="url(#clip0)">
<path d="M2.33076 65.6482C3.84481 67.162 5.837 67.9989 7.98856 67.9989C10.1004 67.9989 12.0926 67.162 13.6066 65.6482L37.3268 41.9278L31.7885 36.3896L26.051 30.6523L2.33076 54.3725C-0.776919 57.4802 -0.776919 62.5403 2.33076 65.6482Z" fill="#57555C"/>
<path d="M2.33105 65.6493C3.84511 67.1631 5.8373 67.9999 7.98886 67.9999C10.1007 67.9999 12.0929 67.1631 13.6069 65.6493L37.3271 41.9289L31.7888 36.3906L2.33105 65.6493Z" fill="#3C3A41"/>
<path d="M8.54629 59.4328H8.58613C8.98457 59.8313 9.46283 60.0306 9.98066 60.0306C10.4986 60.0306 10.9768 59.8313 11.3753 59.4328L26.808 44.04C27.5254 43.2829 27.565 42.0478 26.8878 41.2908C26.8479 41.2509 26.8479 41.2509 26.808 41.2109C26.0112 40.4141 24.7362 40.4141 23.9792 41.2109L8.54629 56.604C7.78926 57.401 7.78926 58.676 8.54629 59.4328Z" fill="#FD4E26"/>
<path d="M8.58643 59.4311C8.98473 59.8297 9.46299 60.0289 9.98082 60.0289C10.4988 60.0289 10.9769 59.8297 11.3755 59.4311L26.8081 44.0383C27.5256 43.2812 27.5652 42.0461 26.888 41.2891L8.58643 59.4311Z" fill="#FD3018"/>
<path d="M31.3105 30.93L34.2988 33.9182L36.9286 36.588L58.0685 14.9501L52.4504 9.33203L31.3105 30.93Z" fill="#B7E0F6"/>
<path d="M36.9286 36.5904L58.0685 14.9525L55.5184 12.4023L34.2988 33.9206L36.9286 36.5904Z" fill="#A4D9F5"/>
<path d="M50.5778 9.73257L54.3629 13.5574L54.4028 13.5973L58.2276 17.4224C59.1442 18.3387 60.6979 18.1396 61.3754 17.0238C63.6462 13.199 65.3994 10.2902 67.7104 6.46539C68.1885 5.66851 68.0691 4.67242 67.3915 4.03492L65.6783 2.32138L63.965 0.608102C63.3276 -0.0691074 62.3315 -0.188638 61.5345 0.289486C57.7094 2.60029 54.8009 4.35341 50.9758 6.6245C49.8606 7.30184 49.6614 8.8159 50.5778 9.73257Z" fill="#CAE8F9"/>
<path d="M65.6788 2.32031L54.3633 13.5562L54.4031 13.5961L58.228 17.4212C59.1445 18.3375 60.6983 18.1384 61.3758 17.0226C63.6466 13.1978 65.3997 10.289 67.7108 6.46419C68.1889 5.66731 68.0695 4.67122 67.3919 4.03372L65.6788 2.32031Z" fill="#B7E0F6"/>
<path d="M4.09482 23.8073C7.60107 27.3135 12.422 28.7877 18.6775 27.1144L40.9191 49.3531C39.2456 55.5687 40.6801 60.3896 44.226 63.9357C47.8121 67.5218 52.8723 68.7968 57.6534 67.4818C58.3708 67.3223 58.8885 66.7646 59.048 66.0871C59.2472 65.4099 59.048 64.6528 58.5301 64.1748L53.1907 58.8359C51.637 57.242 51.637 54.7318 53.1907 53.1779C54.7446 51.6241 57.3346 51.6639 58.8487 53.1779L64.1876 58.5569C64.6657 59.0351 65.4227 59.2342 66.1002 59.0749C66.7774 58.8756 67.3354 58.3575 67.4946 57.6404C68.8096 52.899 67.5345 47.7992 63.9485 44.2131C60.4423 40.7068 55.5815 39.2326 49.3659 40.9062L27.1243 18.6676L27.4032 17.5521C28.7182 12.7709 27.3234 7.59118 23.8172 4.08493C20.2315 0.498871 15.1712 -0.816103 10.3503 0.498871C9.67281 0.698089 9.15484 1.2559 8.95562 1.93324C8.79638 2.61072 8.99546 3.3279 9.47359 3.84587L14.8524 9.18479C16.4063 10.7787 16.4063 13.2888 14.8524 14.8425C13.2986 16.3565 10.7486 16.3565 9.19468 14.8425L3.85576 9.4637C3.33779 8.98557 2.62061 8.78649 1.94313 8.94573C1.26592 9.14495 0.707979 9.66292 0.508761 10.3801C-0.766237 15.1214 0.508894 20.2215 4.09482 23.8073Z" fill="#CAE8F9"/>
<path d="M4.09482 23.8101C7.60107 27.3163 12.422 28.7905 18.6775 27.1172L40.9191 49.3558C39.2456 55.5714 40.6801 60.3924 44.226 63.9385C47.8121 67.5245 52.8723 68.7995 57.6534 67.4846C58.3708 67.3251 58.8885 66.7674 59.048 66.0899C59.2472 65.4127 59.048 64.6555 58.5301 64.1775L53.1907 58.8386C51.637 57.2448 51.637 54.7346 53.1907 53.1807L14.8525 14.8452C13.2987 16.3593 10.7487 16.3593 9.19482 14.8452L3.85576 9.46648C3.33779 8.98835 2.62061 8.78927 1.94313 8.94851C1.26592 9.14773 0.707979 9.6657 0.508761 10.3829C-0.766237 15.1241 0.508894 20.2243 4.09482 23.8101Z" fill="#B7E0F6"/>
</g>
<defs>
<clipPath id="clip0">
<rect width="68" height="68" fill="white"/>
</clipPath>
</defs>
</svg>
